<svg id="visual" viewBox="0 0 900 600" width="900" height="600" xmlns="http://www.w3.org/2000/svg" xmlns:xlink="http://www.w3.org/1999/xlink" version="1.1"><path d="M0 341L21.5 346C43 351 86 361 128.8 359.7C171.7 358.3 214.3 345.7 257.2 329.7C300 313.7 343 294.3 385.8 305C428.7 315.7 471.3 356.3 514.2 358.7C557 361 600 325 642.8 322.3C685.7 319.7 728.3 350.3 771.2 346.8C814 343.3 857 305.7 878.5 286.8L900 268L900 601L878.5 601C857 601 814 601 771.2 601C728.3 601 685.7 601 642.8 601C600 601 557 601 514.2 601C471.3 601 428.7 601 385.8 601C343 601 300 601 257.2 601C214.3 601 171.7 601 128.8 601C86 601 43 601 21.5 601L0 601Z" fill="#c755f8"></path><path d="M0 376L21.5 374C43 372 86 368 128.8 379C171.7 390 214.3 416 257.2 425.8C300 435.7 343 429.3 385.8 428.8C428.7 428.3 471.3 433.7 514.2 430.7C557 427.7 600 416.3 642.8 398.3C685.7 380.3 728.3 355.7 771.2 349.2C814 342.7 857 354.3 878.5 360.2L900 366L900 601L878.5 601C857 601 814 601 771.2 601C728.3 601 685.7 601 642.8 601C600 601 557 601 514.2 601C471.3 601 428.7 601 385.8 601C343 601 300 601 257.2 601C214.3 601 171.7 601 128.8 601C86 601 43 601 21.5 601L0 601Z" fill="#a152f1"></path><path d="M0 496L21.5 486C43 476 86 456 128.8 445.3C171.7 434.7 214.3 433.3 257.2 429.8C300 426.3 343 420.7 385.8 418.8C428.7 417 471.3 419 514.2 433.5C557 448 600 475 642.8 487.5C685.7 500 728.3 498 771.2 497.3C814 496.7 857 497.3 878.5 497.7L900 498L900 601L878.5 601C857 601 814 601 771.2 601C728.3 601 685.7 601 642.8 601C600 601 557 601 514.2 601C471.3 601 428.7 601 385.8 601C343 601 300 601 257.2 601C214.3 601 171.7 601 128.8 601C86 601 43 601 21.5 601L0 601Z" fill="#784ee8"></path><path d="M0 525L21.5 519C43 513 86 501 128.8 494.5C171.7 488 214.3 487 257.2 495C300 503 343 520 385.8 529.5C428.7 539 471.3 541 514.2 538C557 535 600 527 642.8 518.2C685.7 509.3 728.3 499.7 771.2 492.3C814 485 857 480 878.5 477.5L900 475L900 601L878.5 601C857 601 814 601 771.2 601C728.3 601 685.7 601 642.8 601C600 601 557 601 514.2 601C471.3 601 428.7 601 385.8 601C343 601 300 601 257.2 601C214.3 601 171.7 601 128.8 601C86 601 43 601 21.5 601L0 601Z" fill="#454ade"></path></svg>